<svg width="512" height="512" viewBox="0 0 512 512" fill="none" xmlns="http://www.w3.org/2000/svg">
  <rect width="512" height="512" rx="128" fill="url(#gradient)"/>
  
  <!-- Checklist background -->
  <rect x="96" y="128" width="320" height="256" rx="24" fill="white" opacity="0.95"/>
  
  <!-- Checklist lines -->
  <rect x="128" y="160" width="200" height="8" rx="4" fill="#667eea"/>
  <rect x="128" y="200" width="180" height="8" rx="4" fill="#667eea"/>
  <rect x="128" y="240" width="220" height="8" rx="4" fill="#667eea"/>
  <rect x="128" y="280" width="160" height="8" rx="4" fill="#667eea"/>
  <rect x="128" y="320" width="240" height="8" rx="4" fill="#667eea"/>
  
  <!-- Checkboxes -->
  <rect x="320" y="156" width="20" height="20" rx="4" fill="#68d391" stroke="#68d391" stroke-width="2"/>
  <rect x="320" y="196" width="20" height="20" rx="4" fill="#68d391" stroke="#68d391" stroke-width="2"/>
  <rect x="320" y="236" width="20" height="20" rx="4" fill="#68d391" stroke="#68d391" stroke-width="2"/>
  <rect x="320" y="276" width="20" height="20" rx="4" fill="#e2e8f0" stroke="#cbd5e0" stroke-width="2"/>
  <rect x="320" y="316" width="20" height="20" rx="4" fill="#e2e8f0" stroke="#cbd5e0" stroke-width="2"/>
  
  <!-- Checkmarks -->
  <path d="M325 166L330 171L335 156" stroke="white" stroke-width="2" stroke-linecap="round" stroke-linejoin="round"/>
  <path d="M325 206L330 211L335 196" stroke="white" stroke-width="2" stroke-linecap="round" stroke-linejoin="round"/>
  <path d="M325 246L330 251L335 236" stroke="white" stroke-width="2" stroke-linecap="round" stroke-linejoin="round"/>
  
  <defs>
    <linearGradient id="gradient" x1="0%" y1="0%" x2="100%" y2="100%">
      <stop offset="0%" style="stop-color:#667eea;stop-opacity:1" />
      <stop offset="100%" style="stop-color:#764ba2;stop-opacity:1" />
    </linearGradient>
  </defs>
</svg> 